<?xml version="1.0" standalone="no"?>
<!DOCTYPE svg PUBLIC "-//W3C//DTD SVG 20010904//EN"
 "http://www.w3.org/TR/2001/REC-SVG-20010904/DTD/svg10.dtd">
<svg version="1.0" xmlns="http://www.w3.org/2000/svg"
 width="1244.000000pt" height="1244.000000pt" viewBox="0 0 1244.000000 1244.000000"
 preserveAspectRatio="xMidYMid meet">
<metadata>
Created by potrace 1.11, written by Peter Selinger 2001-2013
</metadata>
<g transform="translate(0.000000,1244.000000) scale(0.100000,-0.100000)"
fill="#000000" stroke="none">
<path d="M6866 10503 c-1 -2 -33 -4 -69 -5 -64 -2 -79 -10 -59 -33 11 -12 42
-92 48 -120 10 -51 13 -68 18 -83 3 -9 7 -39 11 -67 3 -27 8 -59 11 -70 3 -11
7 -49 10 -85 3 -36 7 -90 9 -120 8 -103 5 -565 -4 -565 -1 0 -4 -20 -6 -45 -4
-55 -12 -97 -19 -109 -4 -5 -23 -8 -44 -6 -146 12 -202 17 -237 22 -22 3 -50
5 -62 4 -35 -1 -35 0 -46 167 -2 29 -6 54 -9 57 -2 2 -10 -12 -17 -33 -8 -20
-17 -39 -20 -42 -3 -3 -14 -22 -25 -42 -14 -27 -31 -42 -68 -58 -28 -12 -59
-22 -69 -23 -10 -1 -19 -5 -19 -10 0 -4 -4 -6 -8 -3 -5 3 -33 -1 -63 -9 -30
-7 -70 -16 -89 -19 -19 -3 -46 -8 -60 -11 -48 -10 -134 -25 -140 -25 -4 0 -7
6 -7 13 -3 95 -15 276 -19 289 -3 10 -11 15 -20 11 -11 -4 -14 -37 -14 -183
l0 -177 504 -1 c278 0 508 -2 513 -5 5 -3 10 -38 11 -77 5 -146 -49 -222 -218
-302 -58 -28 -116 -55 -128 -61 -16 -7 -19 -13 -10 -15 12 -4 241 -112 245
-115 2 -3 -19 -100 -57 -257 -17 -74 -33 -142 -35 -150 -2 -8 -20 -82 -40
-164 -19 -82 -37 -156 -38 -165 -1 -9 -6 -22 -10 -28 -5 -7 -6 -13 -3 -13 3 0
2 -10 -3 -23 -5 -13 -12 -41 -16 -63 -8 -45 -13 -68 -15 -71 -3 -3 -3 -3 -15
-58 -4 -22 -9 -44 -11 -50 -2 -5 -5 -19 -7 -30 -3 -11 -19 -78 -36 -150 -33
-136 -41 -172 -42 -180 0 -2 -9 -34 -19 -70 -10 -36 -19 -68 -19 -70 0 -3 -3
-15 -6 -28 -3 -12 -7 -35 -10 -51 -5 -35 -14 -41 -118 -82 -85 -34 -70 -34
-224 11 l-62 18 1 46 c0 25 -2 70 -5 99 -6 66 15 97 76 109 33 7 42 13 40 28
-4 54 -14 105 -31 155 -10 30 -17 72 -16 93 3 41 39 97 80 123 13 9 22 19 20
23 -4 6 -13 55 -22 116 -5 39 -12 72 -18 93 -3 9 -8 39 -10 66 -3 26 -8 56
-11 66 -4 12 6 26 32 46 21 15 41 33 45 38 5 7 8 7 8 1 0 -10 20 15 20 25 0 3
-15 5 -34 6 -72 1 -110 45 -162 184 -22 58 -80 160 -90 160 -3 0 -2 -21 1 -47
18 -146 0 -206 -76 -244 -34 -18 -75 -24 -219 -35 -92 -6 -109 -9 -140 -21
-21 -9 -17 -11 35 -17 145 -17 239 -39 275 -65 42 -30 54 -68 53 -161 -1 -81
-10 -235 -13 -235 -1 0 -3 -11 -5 -25 -1 -14 -5 -41 -8 -60 -11 -62 -46 -274
-52 -320 -4 -24 -8 -47 -10 -50 -1 -3 -6 -32 -10 -65 -3 -32 -8 -62 -10 -65
-1 -3 -6 -27 -9 -55 -13 -96 -38 -226 -45 -223 -3 2 -19 10 -36 18 -16 8 -33
19 -37 25 -4 5 -8 6 -8 2 0 -5 -13 1 -30 13 -16 12 -30 18 -30 15 0 -5 -38 18
-69 41 -2 2 7 18 21 36 35 48 99 174 91 182 -3 3 -1 6 5 6 7 0 11 3 10 8 -1 4
2 28 6 54 11 67 0 112 -37 155 -46 53 -95 71 -189 71 l-80 0 -48 -46 c-63 -61
-89 -118 -84 -185 3 -28 9 -56 14 -62 5 -7 8 -14 5 -17 -3 -3 1 -11 10 -18 8
-7 15 -16 15 -21 0 -10 20 -35 75 -94 85 -90 85 -78 3 -110 -89 -34 -95 -38
-119 -91 -11 -23 -33 -53 -49 -67 -29 -26 -110 -72 -110 -62 0 2 -10 1 -23 -4
-13 -5 -39 -12 -58 -15 -63 -11 -94 -17 -129 -26 -19 -5 -53 -12 -75 -16 -22
-3 -43 -8 -46 -10 -3 -2 -41 -10 -85 -19 -43 -9 -83 -20 -89 -23 -5 -4 -14 -7
-20 -8 -89 -16 -141 -41 -175 -82 -16 -19 -27 -39 -24 -44 3 -4 0 -8 -6 -8 -7
0 -8 -6 -2 -17 13 -26 7 -92 -12 -138 -26 -64 -107 -107 -223 -119 -47 -4 -65
-8 -128 -23 -16 -4 -39 -8 -50 -9 -11 0 -31 -6 -45 -11 l-25 -10 -1 -525 c0
-482 -2 -526 -18 -554 -15 -25 -77 -77 -95 -80 -3 0 -15 -4 -26 -8 -180 -67
-264 -99 -280 -106 -11 -5 -58 -23 -105 -40 -96 -36 -115 -43 -150 -58 -14 -7
-126 -50 -250 -97 -124 -47 -234 -90 -245 -96 -12 -6 -27 -11 -35 -13 -16 -3
-42 -12 -75 -26 -117 -49 -221 -44 -340 18 -33 17 -82 38 -108 47 -54 18 -179
21 -220 6 -15 -6 -27 -9 -27 -6 0 2 -28 -8 -62 -21 -61 -25 -173 -64 -193 -68
-5 -1 -14 -4 -20 -7 -5 -4 -23 -9 -40 -13 -16 -4 -52 -18 -80 -31 -27 -13 -84
-38 -125 -55 -41 -18 -124 -55 -184 -82 -101 -46 -154 -69 -166 -73 -3 -1 -32
-14 -65 -29 -71 -34 -172 -80 -235 -108 -25 -11 -78 -35 -118 -54 -39 -19 -74
-34 -77 -34 -3 0 -38 -16 -78 -36 -39 -19 -73 -35 -74 -35 -3 0 -64 -26 -156
-68 l-68 -31 33 -44 c18 -24 42 -56 53 -72 28 -38 67 -88 85 -106 8 -9 35 -39
60 -68 25 -28 54 -61 65 -74 11 -12 49 -55 85 -96 36 -40 75 -84 87 -98 12
-13 46 -51 75 -84 111 -126 183 -208 216 -243 10 -11 47 -54 83 -95 35 -41 66
-77 69 -80 7 -6 190 -217 216 -248 10 -13 30 -36 44 -51 14 -15 44 -49 67 -76
23 -28 51 -61 63 -75 12 -14 38 -45 58 -69 65 -77 80 -91 128 -116 73 -39 124
-34 310 29 88 29 171 58 185 64 15 6 30 8 33 5 3 -4 6 0 6 7 0 7 3 11 6 7 4
-3 22 0 40 8 19 8 34 12 34 9 0 -2 11 3 25 12 14 9 25 13 25 9 0 -4 7 -2 15 5
8 7 15 10 15 7 0 -3 30 6 68 20 37 13 72 26 77 27 6 1 15 4 20 7 9 5 24 10 80
25 23 6 292 97 310 105 11 5 43 16 70 24 28 9 57 19 65 22 8 3 20 7 25 8 15 4
118 36 135 43 8 3 17 6 20 7 3 1 17 7 32 13 15 6 53 19 85 28 32 9 64 21 71
26 6 6 12 8 12 4 0 -3 17 0 38 8 20 8 46 17 57 22 11 4 25 8 30 10 6 1 53 17
105 34 52 18 101 33 108 33 6 0 12 4 12 9 0 4 8 8 18 8 9 0 62 16 117 36 55
19 111 37 125 40 13 3 30 10 37 16 7 6 13 8 13 4 0 -4 14 0 30 9 17 9 30 13
30 11 0 -3 50 13 110 34 61 21 110 36 110 32 0 -4 4 -2 8 3 5 7 192 74 252 90
3 1 12 5 20 8 8 3 47 16 85 28 39 12 75 24 80 28 6 3 15 6 20 7 6 1 57 18 115
39 58 20 110 38 115 39 6 1 16 5 23 9 6 5 12 6 12 3 0 -2 28 7 63 20 60 24 73
29 117 38 11 3 24 8 30 11 5 3 69 26 142 51 73 24 142 48 153 53 27 12 104 41
108 40 1 0 9 2 17 5 8 3 69 24 135 47 66 22 134 46 150 54 33 14 133 48 152
51 7 1 27 9 44 18 18 9 36 16 40 16 4 0 20 5 36 12 15 6 30 12 33 13 30 7 148
50 156 56 6 5 19 10 30 12 10 2 33 10 49 17 17 7 48 18 70 25 22 7 75 26 117
43 42 16 79 27 82 24 3 -3 6 0 6 6 0 7 8 12 18 12 10 0 22 3 26 7 3 4 12 8 19
9 7 1 54 18 106 39 51 20 99 38 105 40 6 1 25 8 41 14 36 15 138 55 145 56 3
1 19 7 35 14 17 7 82 33 145 58 63 25 126 50 140 56 14 6 27 11 30 11 20 4
894 363 977 402 28 13 54 24 56 24 3 0 31 12 63 27 33 15 62 27 66 27 3 1 10
4 14 8 4 5 16 8 26 8 10 0 18 5 18 11 0 6 7 9 15 5 8 -3 15 -2 15 2 0 5 16 14
35 21 19 7 70 29 112 49 43 19 83 37 88 38 6 1 40 15 75 32 110 51 165 76 170
76 3 1 30 13 60 27 30 15 75 35 100 47 25 11 90 41 145 67 55 26 106 48 113
48 6 0 12 4 12 9 0 4 4 8 9 8 12 0 261 118 596 281 66 33 125 59 132 59 6 0
13 4 15 8 4 10 210 112 225 112 6 0 13 3 15 8 2 4 75 44 163 88 159 81 336
172 470 244 39 21 100 54 137 73 37 20 75 41 85 46 77 43 330 181 383 209 36
19 72 41 81 48 8 8 19 14 23 14 35 0 212 177 264 265 37 63 100 206 107 245 2
8 4 16 5 18 2 1 3 5 4 10 2 4 8 27 15 52 7 25 15 53 17 62 7 29 12 49 39 146
14 52 25 98 22 105 -2 6 -30 11 -63 13 -32 1 -108 5 -169 9 -60 3 -148 8 -195
10 -47 2 -127 6 -178 10 -51 3 -123 8 -160 10 -37 2 -114 7 -172 10 -240 15
-216 17 -217 -13 0 -43 -18 -421 -22 -469 -2 -20 -20 -15 -20 5 0 9 -3 35 -5
57 -3 22 -7 69 -10 105 -7 74 -14 139 -21 190 -10 72 -6 128 10 159 18 36 33
133 19 130 -5 -1 -18 1 -29 5 -53 20 -74 26 -124 31 -30 4 -63 9 -75 11 -12 3
-43 7 -71 10 -103 11 -131 14 -160 18 -106 15 -180 25 -250 31 -27 2 -68 7
-90 9 -58 8 -122 14 -187 21 -79 7 -167 16 -203 21 -16 2 -57 6 -90 10 -33 3
-71 7 -85 10 -41 7 -219 17 -310 17 -163 1 -349 -21 -387 -46 -7 -5 -13 -6
-13 -3 0 5 -72 -19 -140 -47 -14 -6 -27 -11 -30 -12 -3 -1 -39 -17 -80 -36
-41 -20 -129 -56 -195 -81 -66 -25 -129 -49 -140 -54 -11 -4 -22 -8 -25 -9
-32 -8 -549 -181 -590 -197 -102 -40 -180 -103 -237 -194 -14 -22 -41 -51 -59
-63 -37 -26 -153 -68 -210 -76 -21 -4 -50 -8 -64 -11 -38 -6 -74 13 -92 49
-15 29 -20 54 -33 167 -3 19 -7 46 -10 60 -3 14 -8 45 -11 70 -3 25 -7 47 -9
50 -2 3 -6 28 -9 55 -8 55 -14 90 -16 90 -1 0 -3 14 -5 30 -2 17 -6 41 -8 55
-23 128 -29 158 -32 180 -2 14 -7 41 -10 60 -4 19 -8 49 -10 65 -2 17 -4 31
-5 33 -2 1 -3 10 -4 20 -3 19 -16 105 -22 137 -2 11 -6 40 -9 65 -3 25 -8 56
-11 70 -2 14 -6 35 -8 46 -7 35 -14 85 -22 149 -3 33 -8 69 -10 80 -9 47 -13
73 -19 120 -3 28 -8 64 -11 80 -3 17 -7 46 -9 65 -3 19 -7 49 -10 65 -13 77
-17 135 -9 136 5 0 18 2 29 4 11 3 41 7 67 10 26 3 69 9 95 14 26 5 51 7 55 5
5 -3 14 -2 21 3 6 4 26 8 42 9 60 3 95 8 95 14 0 3 12 5 28 5 41 1 133 13 139
19 3 2 0 13 -6 23 -6 10 -11 15 -11 11 0 -4 -22 15 -50 42 l-49 48 -28 -32
c-53 -59 -131 -82 -195 -57 -22 9 -57 22 -68 26 -3 1 -27 12 -55 24 -27 13
-64 24 -82 26 -18 2 -37 6 -42 9 -6 4 -9 66 -8 149 l2 142 65 0 c60 1 173 -19
345 -60 102 -25 222 -33 285 -20 14 2 39 7 55 10 17 4 39 10 50 15 11 5 43 16
72 25 118 37 160 97 149 214 -12 119 -31 154 -37 66 -1 -22 -7 -45 -11 -52 -5
-6 -10 -22 -12 -35 -7 -66 -74 -137 -146 -155 -71 -19 -245 9 -330 52 l-26 13
1 179 c1 98 -1 184 -3 191 -2 6 -10 12 -18 12 -8 0 -14 -6 -15 -12 0 -7 0 -99
0 -204 l0 -191 -32 3 c-49 4 -130 14 -147 19 -8 2 -39 7 -69 10 -30 4 -63 8
-74 11 -11 2 -43 6 -70 9 -28 3 -54 8 -58 10 -4 3 -7 237 -6 520 1 460 3 523
19 602 23 108 26 120 33 143 19 61 19 61 -51 58 -36 -1 -66 -3 -68 -5z m-72
-1969 c14 -5 16 -30 16 -175 l0 -169 -69 0 -69 0 13 53 c7 28 25 93 39 142 15
50 29 101 32 114 9 41 13 45 38 35z m-14 -634 c0 -5 7 -10 15 -10 9 0 15 -9
15 -22 1 -31 1 -293 0 -341 l0 -38 -27 16 c-16 8 -46 26 -68 40 -22 14 -51 30
-65 37 -14 7 -31 19 -39 26 -7 7 -16 11 -18 8 -3 -3 27 -43 66 -89 39 -46 71
-91 71 -99 0 -8 -9 -23 -20 -33 -11 -10 -20 -24 -20 -32 0 -7 -4 -13 -10 -13
-5 0 -10 -4 -10 -10 0 -5 29 2 65 15 98 37 93 41 90 -77 -1 -57 -8 -125 -15
-153 -6 -27 -13 -57 -15 -65 -2 -8 -4 -15 -5 -15 -1 0 -3 -9 -5 -19 -14 -73
-1 -74 -154 4 -170 87 -177 92 -166 116 4 10 9 28 10 39 1 11 10 49 20 85 9
36 19 76 22 90 8 41 11 55 13 55 1 0 4 11 6 25 3 14 9 43 15 65 6 22 13 48 15
57 2 10 6 26 8 36 5 21 29 65 81 147 21 33 53 84 71 113 31 48 54 66 54 42z
m293 -360 c3 -25 8 -56 11 -70 5 -24 11 -60 21 -125 3 -16 7 -42 11 -57 7 -35
-1 -35 -57 1 -56 37 -86 65 -102 99 -12 26 -13 40 -6 80 3 13 46 77 75 109 32
37 39 32 47 -37z m2797 -334 c14 -3 68 -12 120 -21 89 -15 128 -25 192 -47 15
-6 30 -10 33 -9 9 2 109 -50 127 -66 16 -14 13 -19 -38 -60 -30 -24 -62 -46
-72 -48 -9 -1 -35 -8 -57 -14 -22 -6 -51 -12 -65 -15 -14 -2 -25 -5 -25 -6 0
-1 -16 -3 -35 -6 -19 -2 -45 -6 -57 -9 -112 -26 -473 -26 -593 0 -14 4 -36 8
-50 11 -156 28 -217 54 -248 105 -31 54 27 122 134 154 24 7 44 11 44 8 0 -2
6 -1 13 4 29 19 165 29 352 27 110 -2 211 -5 225 -8z m-2734 -127 c6 -10 14
-42 19 -79 2 -14 11 -65 20 -115 26 -137 26 -132 -9 -153 -23 -14 -35 -16 -43
-8 -6 6 -43 40 -82 75 -84 77 -96 109 -61 166 12 19 27 41 33 48 7 6 24 28 39
48 22 29 32 35 53 32 14 -3 28 -9 31 -14z m-664 -46 c23 -11 62 -25 85 -33 24
-7 50 -21 59 -31 19 -21 21 -93 4 -114 -10 -12 -6 -12 22 -4 81 25 141 28 164
8 13 -10 15 -29 12 -101 -4 -82 -9 -102 -26 -103 -4 -1 -23 -4 -42 -8 -19 -4
-46 -9 -60 -12 -37 -8 -71 -14 -114 -20 -21 -4 -48 -9 -60 -11 -11 -3 -32 -7
-46 -10 -14 -2 -49 -9 -78 -15 -61 -12 -77 -9 -85 20 -5 22 -11 17 161 140 62
45 117 81 122 81 6 0 10 4 10 10 0 11 -19 6 -105 -30 -53 -22 -149 -60 -152
-60 -2 0 -1 12 2 28 29 155 59 300 65 322 1 3 5 -4 10 -16 4 -12 28 -30 52
-41z m4438 -109 c-19 -9 -59 -25 -89 -35 -30 -10 -59 -24 -66 -29 -7 -6 -17
-10 -21 -9 -9 2 -17 -1 -99 -36 -22 -9 -47 -18 -55 -20 -8 -2 -60 -21 -115
-43 -55 -22 -170 -63 -255 -92 -178 -60 -195 -68 -234 -107 -61 -60 -66 -85
-61 -341 l3 -232 -26 0 -27 0 0 274 1 275 -81 -4 c-44 -3 -109 -7 -145 -10
-36 -2 -105 -7 -155 -10 -122 -8 -194 -13 -295 -20 -207 -14 -242 -16 -460
-30 -52 -3 -102 -8 -110 -10 -13 -4 -15 -60 -14 -427 0 -233 -3 -428 -8 -434
-5 -7 -18 -10 -29 -7 -19 5 -19 15 -19 425 1 232 -1 422 -4 425 -2 2 -20 -3
-40 -11 -20 -8 -36 -13 -36 -10 0 2 -16 -2 -35 -10 -19 -8 -35 -12 -35 -9 0 3
-6 1 -12 -4 -10 -8 -77 -30 -118 -39 -3 0 -12 -3 -20 -7 -18 -7 -299 -97 -320
-102 -20 -5 -221 -66 -240 -73 -8 -3 -17 -6 -20 -6 -3 -1 -11 -5 -17 -9 -7 -5
-17 -5 -23 -2 -5 3 -10 1 -10 -6 0 -7 -3 -10 -6 -7 -3 4 -21 0 -40 -8 -19 -8
-34 -11 -34 -8 0 4 -7 1 -15 -6 -8 -7 -15 -9 -15 -5 0 4 -11 0 -25 -9 -14 -9
-25 -14 -25 -12 0 3 -25 -4 -55 -14 -30 -10 -55 -17 -55 -14 0 3 -6 2 -12 -3
-7 -4 -15 -8 -18 -8 -3 -1 -36 -12 -75 -25 -38 -13 -73 -25 -77 -26 -5 -1 -9
-2 -10 -4 -2 -1 -10 -3 -18 -5 -8 -2 -34 -10 -57 -18 -22 -9 -44 -13 -47 -10
-3 4 -6 1 -6 -5 0 -7 -6 -12 -14 -12 -7 0 -49 -12 -92 -26 -43 -14 -83 -27
-89 -28 -5 -2 -17 -6 -25 -9 -14 -5 -89 -30 -100 -32 -3 -1 -12 -4 -20 -8 -19
-7 -124 -40 -255 -78 -55 -16 -113 -33 -130 -38 -30 -10 -111 -32 -130 -37 -5
-1 -47 -11 -92 -23 -45 -12 -106 -24 -135 -27 -65 -8 -248 -11 -248 -4 0 3
-21 5 -48 6 -42 1 -137 10 -217 20 -16 2 -62 6 -101 10 -69 5 -109 11 -109 14
0 1 -16 3 -35 5 -19 1 -57 6 -85 10 -27 4 -60 9 -72 10 -12 2 -34 6 -50 9 -29
7 -37 8 -113 22 -25 4 -47 8 -50 9 -10 3 -126 28 -140 30 -8 2 -15 4 -15 5 0
1 -12 4 -26 6 -14 2 -45 10 -70 18 l-44 14 65 -4 c36 -2 76 -6 89 -9 13 -2 56
-7 95 -10 39 -3 89 -8 111 -11 22 -3 58 -8 80 -10 22 -2 54 -6 70 -8 17 -2 57
-7 90 -10 59 -6 91 -10 150 -20 17 -2 55 -8 85 -12 30 -3 66 -8 80 -10 14 -1
41 -5 60 -8 145 -24 413 -24 530 -1 14 3 35 7 48 9 12 3 30 7 40 10 9 3 28 7
42 10 14 3 111 35 215 71 170 60 925 314 950 320 6 1 17 4 25 7 24 9 184 60
195 62 6 2 44 13 85 25 41 13 75 22 75 21 0 -1 14 4 30 10 28 11 275 85 320
96 28 7 35 9 85 24 25 7 50 15 55 16 6 2 57 17 115 34 58 17 120 33 139 36 19
3 45 10 59 15 14 5 27 7 30 5 2 -3 12 -1 21 3 9 5 34 11 56 15 39 5 65 10 123
21 15 3 45 8 67 10 22 3 51 7 64 9 28 6 154 17 227 21 28 1 56 5 62 9 6 3 13
3 16 -2 3 -6 61 -8 61 -2 0 6 148 3 152 -3 2 -4 9 -5 14 -1 6 3 52 8 102 10
103 4 154 9 211 19 21 4 48 8 60 9 11 2 28 6 36 9 8 3 40 11 70 18 43 9 240
69 308 94 7 2 14 5 17 5 3 0 25 9 50 20 25 11 48 19 50 19 5 0 79 26 165 58 8
3 20 8 25 9 6 2 48 17 95 34 47 16 86 30 88 30 6 0 15 3 64 16 29 7 75 16 103
20 27 3 52 7 54 10 2 2 14 4 25 4 16 -1 12 -5 -14 -16z m-4930 -152 c8 -3 23
-6 33 -7 9 -2 18 -3 20 -4 1 -2 15 -4 31 -6 87 -12 149 -74 162 -162 l5 -41
-43 -8 c-24 -4 -45 -8 -48 -9 -28 -6 -201 -37 -207 -37 -13 1 -20 45 -12 78 3
18 3 38 -2 45 -4 7 -5 17 -2 23 8 12 10 76 3 76 -4 0 -4 15 -2 34 4 34 13 37
62 18z m-129 -58 c4 -2 2 -17 -6 -32 -13 -26 -22 -46 -75 -170 -22 -51 -23
-52 -46 -37 -13 8 -30 15 -37 15 -8 0 -20 7 -28 16 -15 18 -7 43 47 162 19 41
34 78 34 83 0 7 86 -21 111 -37z m2316 -1361 c4 -12 -28 -30 -67 -38 -8 -2
-64 -20 -125 -40 -60 -20 -114 -38 -120 -39 -5 -2 -17 -5 -25 -9 -8 -3 -53
-17 -100 -32 -47 -14 -92 -29 -100 -32 -8 -3 -20 -7 -26 -8 -15 -4 -130 -41
-231 -76 -46 -16 -83 -26 -83 -24 0 2 -20 -4 -45 -15 -25 -11 -47 -20 -50 -20
-5 -1 -1 1 -115 -36 -47 -15 -92 -28 -100 -29 -8 -1 -28 -7 -43 -14 -15 -6
-40 -14 -55 -17 -15 -4 -33 -11 -39 -17 -7 -5 -13 -7 -13 -4 0 3 -21 -2 -47
-10 -417 -130 -525 -145 -643 -90 -61 29 -117 113 -135 202 -5 22 -10 47 -11
55 -6 27 -5 194 1 221 3 15 12 40 20 55 14 27 15 21 16 -96 1 -69 1 -129 0
-134 -4 -20 22 -113 43 -151 73 -138 197 -163 431 -89 44 13 85 26 90 28 6 2
13 4 18 5 4 0 23 7 42 15 19 8 35 13 35 10 0 -2 16 2 35 10 20 9 36 15 38 15
1 0 9 2 17 5 125 40 157 50 170 52 8 1 41 11 73 22 31 12 57 18 57 15 0 -3 6
-1 13 5 6 6 15 11 19 11 9 2 16 4 95 29 34 11 64 18 67 14 3 -3 6 0 6 7 0 7 5
9 10 6 6 -4 17 -1 25 5 8 7 15 9 15 5 0 -4 7 -2 15 5 8 7 15 10 15 7 0 -3 15
0 33 8 17 7 35 14 39 14 4 1 13 3 20 6 7 2 74 22 148 45 155 48 258 80 384
121 49 16 92 26 97 23 5 -3 9 -1 9 4 0 14 73 9 77 -5z m-4132 -667 c33 -4 67
-9 75 -11 8 -2 38 -6 65 -10 28 -3 64 -8 80 -12 17 -3 44 -7 60 -8 17 -1 46
-5 65 -8 19 -4 51 -9 70 -12 19 -2 46 -7 60 -9 27 -5 61 -11 125 -21 22 -3 74
-12 115 -20 41 -8 86 -17 100 -19 14 -3 36 -7 50 -10 32 -7 129 -27 155 -31
11 -2 54 -10 95 -19 41 -8 93 -17 115 -20 22 -4 65 -11 95 -16 30 -5 73 -12
95 -15 22 -2 54 -6 70 -9 45 -7 186 -8 220 -2 17 4 44 8 60 11 43 7 63 12 130
30 33 9 68 18 77 20 9 2 50 13 90 24 115 32 226 61 251 65 12 3 23 5 25 7 1 1
7 3 12 4 6 1 11 3 13 5 1 1 11 3 22 5 11 1 48 10 83 18 34 8 62 13 62 10 0 -3
6 -1 13 5 6 5 35 13 62 17 28 5 55 10 60 11 47 13 135 27 135 21 0 -5 -83 -36
-117 -44 -7 -2 -19 -4 -25 -6 -7 -2 -40 -11 -73 -21 -74 -22 -83 -25 -93 -27
-4 -1 -29 -10 -57 -19 -27 -9 -53 -18 -57 -19 -4 -1 -13 -3 -20 -6 -94 -30
-654 -184 -768 -210 -8 -2 -48 -13 -87 -23 -40 -11 -73 -17 -73 -15 0 3 -6 0
-14 -6 -8 -6 -18 -11 -22 -10 -11 3 -51 -7 -119 -28 -27 -8 -63 -17 -80 -20
-16 -2 -71 -15 -120 -28 -50 -14 -102 -27 -115 -29 -14 -2 -25 -5 -25 -7 0 -1
-9 -3 -20 -5 -11 -1 -85 -19 -165 -39 -80 -20 -154 -39 -165 -42 -38 -8 -50
-11 -52 -13 -2 -2 -11 -3 -20 -4 -10 -1 -23 -4 -29 -8 -6 -4 -26 -10 -45 -12
-19 -3 -61 -13 -94 -22 -33 -9 -68 -18 -77 -20 -27 -6 -44 -10 -158 -39 -58
-14 -113 -28 -123 -30 -10 -2 -27 -7 -37 -10 -10 -3 -31 -8 -46 -10 -16 -2
-53 -11 -81 -19 -29 -8 -53 -12 -53 -9 0 3 -7 0 -15 -7 -8 -6 -19 -9 -24 -6
-5 4 -13 1 -16 -5 -4 -5 -13 -8 -20 -5 -7 2 -16 2 -19 -2 -4 -3 -12 -7 -19 -8
-7 -1 -30 -7 -52 -12 -22 -6 -56 -14 -75 -19 -42 -9 -156 -9 -188 0 -25 7 -79
42 -102 68 -43 47 -142 68 -232 47 -23 -5 -54 -11 -68 -13 -24 -4 -41 -8 -92
-21 -13 -3 -34 -7 -48 -9 -14 -2 -36 -6 -50 -10 -14 -4 -36 -8 -50 -9 -14 -2
-34 -6 -45 -9 -11 -3 -40 -9 -65 -12 -24 -4 -48 -9 -51 -11 -4 -2 -24 -6 -45
-9 -22 -3 -50 -7 -64 -10 -13 -2 -40 -7 -60 -10 -20 -3 -47 -8 -60 -11 -14 -3
-38 -7 -55 -9 -58 -9 -101 -15 -155 -25 -30 -5 -72 -12 -94 -15 -71 -8 -121
-16 -136 -20 -8 -2 -37 -7 -65 -10 -27 -3 -59 -7 -70 -9 -11 -2 -45 -7 -75
-11 -30 -3 -66 -8 -80 -10 -14 -2 -50 -6 -80 -10 -30 -3 -66 -8 -80 -10 -30
-5 -122 -16 -170 -20 -19 -2 -64 -6 -100 -10 -36 -4 -78 -9 -95 -10 -16 -2
-61 -7 -100 -10 -38 -3 -86 -8 -105 -10 -19 -2 -73 -7 -120 -10 -47 -4 -103
-8 -125 -10 -22 -2 -94 -6 -160 -10 -66 -4 -122 -7 -125 -7 -3 0 -46 0 -95 1
l-90 1 -1 30 c-1 17 1 30 5 31 27 4 147 14 291 24 35 2 78 7 95 9 16 3 61 8
100 11 38 4 73 9 77 11 3 2 35 6 70 9 35 3 74 7 88 10 39 8 71 13 125 20 28 3
61 8 75 10 14 2 48 6 75 9 59 7 188 25 230 32 17 3 48 7 70 10 22 2 56 6 75
10 19 3 52 7 72 8 21 0 38 3 38 7 0 3 10 5 23 6 21 0 113 11 147 18 9 2 41 6
71 10 30 3 81 10 114 15 33 5 80 12 105 15 53 6 117 16 145 21 11 2 47 6 80 9
33 3 67 8 75 10 8 2 38 7 65 10 28 3 61 7 75 10 14 3 47 7 74 10 27 2 56 7 65
9 9 3 43 7 76 11 33 3 74 8 90 11 17 3 44 7 60 9 17 2 55 8 85 12 69 10 187
10 220 1 14 -4 45 -26 70 -48 25 -23 58 -48 75 -57 37 -20 132 -26 193 -12 26
6 55 12 66 14 35 8 191 45 226 55 19 6 58 15 85 21 28 6 59 13 70 16 11 2 29
6 40 8 11 2 45 11 75 19 30 8 69 18 85 21 17 3 41 8 55 11 14 3 43 10 65 16
22 6 48 13 57 15 19 3 206 47 273 64 22 5 49 11 60 14 18 3 115 25 270 62 33
8 69 16 80 17 11 2 21 5 23 6 3 4 11 6 67 15 57 10 55 10 75 18 15 6 197 47
228 51 19 3 29 33 15 46 -4 5 -24 11 -43 14 -46 8 -87 15 -130 22 -77 14 -86
15 -107 17 -13 0 -23 5 -23 10 0 4 -3 6 -7 4 -5 -3 -57 4 -118 14 -60 11 -123
22 -140 24 -16 3 -41 7 -55 10 -14 3 -50 9 -80 15 -30 5 -66 11 -80 14 -14 3
-38 7 -55 9 -16 3 -46 8 -65 11 -19 3 -46 8 -60 10 -14 3 -49 9 -79 15 -30 6
-56 9 -59 6 -3 -2 -12 0 -21 4 -9 5 -36 12 -61 15 -25 3 -93 15 -150 25 -58
11 -108 17 -112 15 -4 -2 -9 0 -13 6 -3 5 -22 10 -41 10 -19 0 -34 4 -34 9 0
17 12 41 19 37 3 -2 33 -7 66 -10z m2849 5 c-9 -9 -34 -9 -34 -1 0 5 9 8 20 7
10 -1 17 -3 14 -6z"/>
</g>
</svg>
